# AST/ASF file generated using VICON BodyLanguage
# -----------------------------------------------
:version 1.10
:name VICON
:units
  mass 1.0
  length 0.45
  angle deg
:documentation
   .ast/.asf automatically generated from VICON data using
   VICON BodyBuilder and BodyLanguage model FoxedUp or BRILLIANT.MOD
:root
   order TX TY TZ RX RY RZ
   axis XYZ
   position 0 0 0  
   orientation 0 0 0 
:bonedata
  begin
     id 1 
     name lhipjoint
     direction 0.710188 -0.616876 0.339259 
     length 2.5669 
     axis 0 0 0  XYZ
  end
  begin
     id 2 
     name lfemur
     direction 0.34202 -0.939693 0  
     length 7.12796  
     axis 0 0 20  XYZ
    dof rx ry rz
    limits (-160.0 20.0)
           (-70.0 70.0)
           (-60.0 70.0)
  end
  begin
     id 3 
     name ltibia
     direction 0.34202 -0.939693 0   
     length 7.58108   
     axis 0 0 20   XYZ
    dof rx
    limits (-10.0 170.0)
  end
  begin
     id 4 
     name lfoot
     direction 0.0669471 -0.183936 0.980656   
     length 2.17365   
     axis -90 7.62852e-016 20   XYZ
    dof rx rz
    limits (-45.0 90.0)
           (-70.0 20.0)
  end
  begin
     id 5 
     name ltoes
     direction 1.53508e-011 -4.21705e-011 1   
     length 1.09427   
     axis -90 7.62852e-016 20   XYZ
    dof rx
    limits (-90.0 20.0)
  end
  begin
     id 6 
     name rhipjoint
     direction -0.700191 -0.625589 0.34405   
     length 2.53115  
     axis 0 0 0  XYZ 
  end
  begin
     id 7 
     name rfemur
     direction -0.34202 -0.939693 0   
     length 7.33006   
     axis 0 0 -20   XYZ
    dof rx ry rz
    limits (-160.0 20.0)
           (-70.0 70.0)
           (-70.0 60.0)
  end
  begin
     id 8 
     name rtibia
     direction -0.34202 -0.939693 0   
     length 7.64926   
     axis 0 0 -20   XYZ
    dof rx
    limits (-10.0 170.0)
 end
 begin
     id 9 
     name rfoot
     direction -0.0688927 -0.189281 0.979503   
     length 2.20493  
     axis -90 -7.62852e-016 -20   XYZ
    dof rx rz
    limits (-45.0 90.0)
           (-20.0 70.0)
  end
  begin
     id 10 
     name rtoes
     direction -1.53567e-011 -4.21933e-011 1   
     length 1.10919   
     axis -90 -7.62852e-016 -20   XYZ
    dof rx
    limits (-90.0 20.0)
  end
  begin
     id 11 
     name lowerback
     direction -0.0167868 0.989873 -0.140959   
     length 2.14596   
     axis 0 0 0   XYZ
    dof rx ry rz
    limits (-20.0 45.0)
           (-30.0 30.0)
           (-30.0 30.0)
  end
  begin
     id 12 
     name upperback
     direction 0.0129109 0.998033 0.0613525   
     length 2.10457   
     axis 0 0 0   XYZ
    dof rx ry rz
    limits (-20.0 45.0)
           (-30.0 30.0)
           (-30.0 30.0)
  end
  begin
     id 13 
     name thorax
     direction 0.0177047 0.991119 0.131797   
     length 2.17652   
     axis 0 0 0   XYZ
    dof rx ry rz
    limits (-20.0 45.0)
           (-30.0 30.0)
           (-30.0 30.0)
  end
  begin
     id 14 
     name lowerneck
     direction -0.0336893 0.997548 0.0613464   
     length 1.8912   
     axis 0 0 0   XYZ
    dof rx ry rz
    limits (-20.0 45.0)
           (-30.0 30.0)
           (-30.0 30.0)
  end
  begin
     id 15 
     name upperneck
     direction 0.0435909 0.997179 -0.0611028   
     length 1.8829   
     axis 0 0 0   XYZ
    dof rx ry rz
    limits (-20.0 45.0)
           (-30.0 30.0)
           (-30.0 30.0)
  end
  begin
     id 16
     name head
     direction 0.0175076 0.999444 -0.0283782  
     length 1.93197  
     axis 0 0 0   XYZ
    dof rx ry rz
    limits (-20.0 45.0)
           (-30.0 30.0)
           (-30.0 30.0)
  end
  begin
     id 17 
     name lclavicle
     direction 0.919164 0.389875 0.0559876  
     length 3.60004  
     axis 0 0 0   XYZ
    dof ry rz
    limits (-20.0 10.0)
           (0.0 20.0)
  end
  begin
     id 18 
     name lhumerus
     direction 1 -4.48958e-011 6.89191e-027   
     length 5.43301   
     axis 180 -30 -90   XYZ
    dof rx ry rz
    limits (-60.0 90.0)
           (-90.0 90.0)
           (-90.0 90.0)
  end
  begin
     id 19
     name lradius
     direction 1 -4.4897e-011 3.24727e-027   
     length 3.15936   
     axis 180 -30 -90   XYZ
    dof rx
    limits (-10.0 170.0)
  end
  begin
     id 20
     name lwrist
     direction 1 -4.4897e-011 9.00228e-027   
     length 1.57968   
     axis -6.29373e-015 90 90   XYZ
    dof ry
    limits (-180.0 0.0)
 end
  begin
     id 21 
     name lhand
     direction 1 -4.48968e-011 1.80042e-026   
     length 0.712827   
     axis -1.14882e-014 90 90   XYZ
    dof rx rz
    limits (-90.0 90.0)
           (-45.0 45.0)
  end
  begin
     id 22 
     name lfingers
     direction 1 -4.49019e-011 3.60267e-026   
     length 0.574699   
     axis -2.29769e-014 90 90   XYZ
    dof rx
    limits (0.0 90.0)
  end
  begin
     id 23
     name lthumb
     direction 0.707107 -6.3498e-011 0.707107   
     length 0.825157   
     axis -90 45 5.37419e-014   XYZ
    dof rx rz
    limits (-45.0 45.0)
           (-45.0 45.0)
  end
  begin
     id 24 
     name rclavicle
     direction -0.890334 0.455305 -0.00132111   
     length 3.51494  
     axis 0 0 0   XYZ 
    dof ry rz
    limits (-10.0 20.0)
           (-20.0 0.0)
  end
  begin
     id 25 
     name rhumerus
     direction -1 -4.48967e-011 5.07175e-028  
     length 5.34194   
     axis 180 30 90   XYZ
    dof rx ry rz
    limits (-90.0 60.0)
           (-90.0 90.0)
           (-90.0 90.0)
  end
  begin
     id 26 
     name rradius
     direction -1 -4.48955e-011 3.30467e-027   
     length 3.19351   
     axis 180 30 90   XYZ
    dof rx
    limits (-10.0 170.0)
  end
  begin
     id 27 
     name rwrist
     direction -1 -4.48968e-011 9.00208e-027   
     length 1.59676   
     axis -6.29373e-015 -90 -90   XYZ
    dof ry
    limits (-180.0 0.0)
  end
  begin
     id 28
     name rhand
     direction -1 -4.49e-011 1.80099e-026   
     length 0.743862   
     axis -1.14882e-014 -90 -90   XYZ
    dof rx rz
    limits (-90.0 90.0)
           (-45.0 45.0)
  end
  begin
     id 29
     name rfingers
     direction -1 -4.49009e-011 3.6023e-026   
     length 0.599721   
     axis -2.29769e-014 -90 -90   XYZ
    dof rx
    limits (0.0 90.0)
  end
  begin
     id 30
     name rthumb
     direction -0.707107 -6.35025e-011 0.707107   
     length 0.861083   
     axis -90 -45 -5.37419e-014   XYZ
    dof rx rz
    limits (-45.0 45.0)
           (-45.0 45.0)
  end
:hierarchy
  begin
    root lhipjoint rhipjoint lowerback
    lhipjoint lfemur
    lfemur ltibia
    ltibia lfoot
    lfoot ltoes
    rhipjoint rfemur
    rfemur rtibia
    rtibia rfoot
    rfoot rtoes
    lowerback upperback
    upperback thorax
    thorax lowerneck lclavicle rclavicle
    lowerneck upperneck
    upperneck head
    lclavicle lhumerus
    lhumerus lradius
    lradius lwrist
    lwrist lhand lthumb
    lhand lfingers
    rclavicle rhumerus
    rhumerus rradius
    rradius rwrist
    rwrist rhand rthumb
    rhand rfingers
  end

#!OML:ASF H:\Martial Arts Walks\Project 1\Capture day 1\Session 1\male.ASF
:FULLY-SPECIFIED
:DEGREES
306
root -8.95779 15.2684 -30.9772 5.68074 64.9267 -7.88094
lowerback 22.8401 0.691507 -8.92107
upperback -0.958177 -1.51922 -0.335518
thorax -13.7967 -0.032122 5.24142
lowerneck 5.05837 -15.5379 -15.6707
upperneck -4.19461 -21.5915 22.9074
head 2.28785 -11.1251 8.59563
rclavicle -2.5842e-014 3.18055e-015
rhumerus 4.51999 12.7565 -46.134
rradius 114.36
rwrist -21.5903
rhand -23.3877 -43.4172
rfingers 7.12502
rthumb 3.06868 -73.3748
lclavicle -2.5842e-014 3.18055e-015
lhumerus -31.5729 -24.6366 79.9304
lradius 109.502
lwrist 11.1078
lhand -22.3946 5.42389
lfingers 7.12502
lthumb 4.02774 35.3656
rfemur -54.7377 -10.4635 24.1237
rtibia 71.2121
rfoot -17.2775 -17.1589
rtoes -11.2663
lfemur -49.8429 9.93235 -5.02829
ltibia 88.673
lfoot -15.7398 20.1619
ltoes 1.31025
307
root -8.96257 15.369 -30.785 3.01784 65.2885 -10.6502
lowerback 22.5184 0.788474 -9.03054
upperback -0.923764 -1.3504 -0.0700916
thorax -13.5892 0.0517401 5.54586
lowerneck 5.07288 -15.6279 -15.5535
upperneck -3.81753 -21.7651 22.8556
head 2.40643 -11.2021 8.52861
rclavicle 4.09496e-014 1.59028e-014
rhumerus 4.27295 12.2715 -44.4965
rradius 114.961
rwrist -22.5734
rhand -22.4615 -42.6044
rfingers 7.12502
rthumb 3.9631 -72.5473
lclavicle 4.09496e-014 1.59028e-014
lhumerus -31.7041 -24.7486 79.2006
lradius 109.172
lwrist 10.2832
lhand -20.7975 4.67367
lfingers 7.12502
lthumb 5.56987 34.5805
rfemur -53.3779 -10.4255 25.902
rtibia 69.9432
rfoot -16.751 -16.8912
rtoes -12.6868
lfemur -51.7217 10.5299 -6.9558
ltibia 90.682
lfoot -16.9633 19.0357
ltoes 0.661673
308
root -8.96114 15.4781 -30.5888 0.33126 65.6612 -13.4541
lowerback 22.149 0.889038 -9.17003
upperback -0.930329 -1.18766 0.157624
thorax -13.4051 0.135306 5.82595
lowerneck 5.23309 -15.687 -15.5031
upperneck -3.40602 -21.9268 22.9734
head 2.53867 -11.2826 8.53556
rclavicle -3.81667e-014 -1.59028e-015
rhumerus 3.88241 11.6517 -42.9229
rradius 115.353
rwrist -24.0001
rhand -21.9578 -42.3224
rfingers 7.12502
rthumb 4.44952 -72.2556
lclavicle -3.81667e-014 -1.59028e-015
lhumerus -31.7278 -25.1296 78.3704
lradius 108.845
lwrist 9.6177
lhand -19.8314 3.81056
lfingers 7.12502
lthumb 6.50262 33.6907
rfemur -52.0542 -10.3946 27.5089
rtibia 68.7802
rfoot -15.9183 -16.203
rtoes -15.4374
lfemur -53.46 11.1763 -9.17109
ltibia 92.2115
lfoot -17.8299 17.6096
ltoes -0.812416
309
root -8.95768 15.5774 -30.3912 -2.48158 66.021 -16.3954
lowerback 21.8105 0.906818 -9.3761
upperback -0.950494 -1.14608 0.458172
thorax -13.2332 0.172634 6.26935
lowerneck 5.09467 -15.7228 -15.529
upperneck -2.70014 -22.069 22.9161
head 2.78692 -11.3231 8.46402
rclavicle 3.89618e-014 5.56597e-014
rhumerus 3.53155 11.1197 -41.3918
rradius 115.748
rwrist -25.6899
rhand -21.563 -42.5267
rfingers 7.12502
rthumb 4.83072 -72.4517
lclavicle 3.89618e-014 5.56597e-014
lhumerus -31.6293 -25.4523 77.4526
lradius 108.499
lwrist 9.2953
lhand -18.3734 2.9689
lfingers 7.12502
lthumb 7.90992 32.8009
rfemur -50.9311 -10.6151 29.0353
rtibia 67.9822
rfoot -15.4046 -14.6708
rtoes -17.9434
lfemur -55.0582 11.7591 -11.499
ltibia 93.3213
lfoot -18.7012 15.6766
ltoes -1.90926
310
root -8.95256 15.6694 -30.1896 -6.0968 66.2299 -20.0971
lowerback 21.5427 0.886615 -9.39569
upperback -0.937916 -1.0972 0.869519
thorax -13.0649 0.204152 6.73271
lowerneck 4.98166 -15.7201 -15.6715
upperneck -2.02658 -22.169 22.9398
head 3.03839 -11.3451 8.44222
rclavicle 3.26007e-014 -3.65764e-014
rhumerus 3.04242 10.6138 -39.9014
rradius 116.134
rwrist -27.4821
rhand -21.068 -42.4119
rfingers 7.12502
rthumb 5.30869 -72.3254
lclavicle 3.26007e-014 -3.65764e-014
lhumerus -31.4138 -25.7813 76.3651
lradius 108.22
lwrist 9.17363
lhand -16.7814 1.94534
lfingers 7.12502
lthumb 9.44624 31.7136
rfemur -49.8666 -10.6737 30.6296
rtibia 67.5366
rfoot -14.7829 -12.3371
rtoes -19.9192
lfemur -56.3911 12.4355 -13.5148
ltibia 93.9951
lfoot -19.0199 13.3384
ltoes -3.47799
311
root -8.9464 15.7618 -29.9882 -10.2237 66.3271 -24.3727
lowerback 21.2545 0.745546 -9.25058
upperback -0.93449 -1.15256 1.38337
thorax -12.8759 0.179724 7.25166
lowerneck 4.84011 -15.5855 -15.916
upperneck -1.37226 -22.0871 22.9552
head 3.26513 -11.2758 8.45767
rclavicle -2.94201e-014 -1.11319e-014
rhumerus 2.63028 10.2335 -38.5362
rradius 116.492
rwrist -29.2784
rhand -21.0274 -43.378
rfingers 7.12502
rthumb 5.34787 -73.2905
lclavicle -2.94201e-014 -1.11319e-014
lhumerus -31.1646 -25.9534 75.1369
lradius 108.007
lwrist 9.07719
lhand -15.9444 1.01978
lfingers 7.12502
lthumb 10.2538 30.7498
rfemur -49.1698 -10.8157 32.304
rtibia 67.5988
rfoot -14.0535 -8.74887
rtoes -19.1725
lfemur -57.566 13.1239 -15.2458
ltibia 94.1786
lfoot -18.9269 10.5531
ltoes -5.17053
312
root -8.9365 15.8456 -29.7885 -14.4164 66.1597 -28.7221
lowerback 20.8246 1.02692 -8.58106
upperback -0.905269 -0.564388 1.41832
thorax -12.7096 0.394658 6.70695
lowerneck 5.29404 -15.9528 -14.9447
upperneck -1.37821 -22.5842 23.0776
head 3.18773 -11.5519 8.34172
rclavicle 7.15625e-015 -9.54166e-015
rhumerus 0.392927 8.75247 -37.5456
rradius 117.123
rwrist -30.8175
rhand -20.0433 -43.2142
rfingers 7.12502
rthumb 6.29801 -73.1006
lclavicle 7.15625e-015 -9.54166e-015
lhumerus -29.8638 -28.0542 73.2502
lradius 107.69
lwrist 9.15859
lhand -15.2953 0.216551
lfingers 7.12502
lthumb 10.8799 29.9147
rfemur -48.8207 -11.3993 34.1757
rtibia 68.1427
rfoot -12.3315 -5.15796
rtoes -23.5095
lfemur -58.4919 13.9589 -16.7655
ltibia 93.8817
lfoot -18.5671 7.51715
ltoes -5.63424
313
root -8.92176 15.9372 -29.5967 -18.6652 65.7156 -33.1194
lowerback 20.4436 0.81089 -8.09987
upperback -0.804575 -0.629289 1.92934
thorax -12.3577 0.332513 7.02241
lowerneck 5.09806 -15.7709 -15.1148
upperneck -1.0185 -22.3891 23.1157
head 3.31187 -11.4317 8.37411
rclavicle 1.43125e-014 3.18055e-014
rhumerus -0.105835 8.39327 -36.4011
rradius 117.472
rwrist -32.319
rhand -20.2841 -43.5651
rfingers 7.12502
rthumb 6.06556 -73.4582
lclavicle 1.43125e-014 3.18055e-014
lhumerus -29.1751 -28.1426 71.4885
lradius 107.553
lwrist 8.88509
lhand -14.7494 -0.424202
lfingers 7.12502
lthumb 11.4065 29.2455
rfemur -48.9229 -11.9711 35.7261
rtibia 69.1535
rfoot -10.2296 0.71447
rtoes -18.7565
lfemur -59.0064 14.8524 -17.9764
ltibia 92.9597
lfoot -17.8291 4.96619
ltoes -4.97366
314
root -8.90265 16.0268 -29.4158 -22.3336 65.0703 -36.7594
lowerback 20.1719 0.580765 -7.64854
upperback -0.636539 -0.742476 2.35582
thorax -11.9838 0.243876 7.26959
lowerneck 4.8919 -15.5375 -15.3055
upperneck -0.788001 -22.1062 23.2149
head 3.39338 -11.2726 8.4448
rclavicle -9.54166e-015 3.81667e-014
rhumerus -0.523602 8.06539 -35.3992
rradius 117.726
rwrist -33.6719
rhand -20.0855 -42.5075
rfingers 7.12502
rthumb 6.25731 -72.3951
lclavicle -9.54166e-015 3.81667e-014
lhumerus -28.3674 -28.0841 69.5112
lradius 107.422
lwrist 8.39066
lhand -14.2922 -1.03444
lfingers 7.12502
lthumb 11.8473 28.6104
rfemur -49.168 -12.5503 36.7489
rtibia 70.5169
rfoot -6.38097 7.06895
rtoes -9.75728
lfemur -58.9597 15.7448 -19.0488
ltibia 91.4902
lfoot -17.1152 3.20088
ltoes -3.60564
315
root -8.88096 16.1118 -29.2453 -25.5511 64.2105 -39.8239
lowerback 20.0134 0.247024 -7.29647
upperback -0.407358 -1.01304 2.89935
thorax -11.5742 0.0895549 7.75288
lowerneck 4.43396 -15.1544 -15.792
upperneck -0.469863 -21.6092 23.1426
head 3.51063 -10.9892 8.50942
rclavicle 3.49861e-014 -3.49861e-014
rhumerus -0.42384 8.02102 -34.3775
rradius 117.821
rwrist -34.6947
rhand -20.8958 -43.7332
rfingers 7.12502
rthumb 5.47495 -73.6425
lclavicle 3.49861e-014 -3.49861e-014
lhumerus -27.7793 -27.4094 67.5399
lradius 107.378
lwrist 7.69763
lhand -14.4389 -1.4659
lfingers 7.12502
lthumb 11.7059 28.1871
rfemur -49.5708 -12.9293 37.2516
rtibia 72.2687
rfoot -0.483549 13.1747
rtoes 2.61443
lfemur -58.4428 16.628 -19.8975
ltibia 89.4646
lfoot -16.397 2.9528
ltoes -2.76615
316
root -8.8581 16.1789 -29.0737 -28.7177 63.1879 -42.5584
lowerback 19.9934 0.129624 -6.75775
upperback -0.111296 -0.989752 3.21551
thorax -11.2291 0.0551179 7.78043
lowerneck 4.43873 -14.923 -15.761
upperneck -0.521273 -21.2878 23.2186
head 3.43784 -10.8336 8.57884
rclavicle 4.6118e-014 2.38542e-014
rhumerus -1.19627 7.60124 -33.5765
rradius 117.784
rwrist -35.3429
rhand -21.0108 -43.2242
rfingers 7.12502
rthumb 5.36388 -73.1363
lclavicle 4.6118e-014 2.38542e-014
lhumerus -26.6883 -27.4295 65.2376
lradius 107.204
lwrist 7.04967
lhand -13.8598 -1.95208
lfingers 7.12502
lthumb 12.2643 27.6683
rfemur -49.6314 -13.1814 37.3758
rtibia 74.3437
rfoot 5.61471 16.3462
rtoes 11.5653
lfemur -57.3202 17.5089 -20.1664
ltibia 87.0389
lfoot -15.8289 3.4421
ltoes -1.97858
317
root -8.83626 16.2461 -28.9105 -31.877 62.1013 -45.0917
lowerback 20.1594 0.0682976 -6.14743
upperback 0.212166 -0.886161 3.52949
thorax -10.9752 0.061578 7.74602
lowerneck 4.51841 -14.7683 -15.5531
upperneck -0.539884 -21.0624 23.1024
head 3.33689 -10.728 8.55623
rclavicle -1.27222e-014 1.27222e-014
rhumerus -2.35149 7.09005 -32.7061
rradius 117.499
rwrist -35.371
rhand -21.5216 -41.941
rfingers 7.12502
rthumb 4.87073 -71.865
lclavicle -1.27222e-014 1.27222e-014
lhumerus -25.2712 -27.4571 62.9626
lradius 106.805
lwrist 6.58584
lhand -12.863 -2.41783
lfingers 7.12502
lthumb 13.2253 27.1426
rfemur -49.5485 -13.3929 37.1409
rtibia 76.9805
rfoot 7.67843 16.9624
rtoes 10.7523
lfemur -55.6146 18.1623 -19.8409
ltibia 84.0568
lfoot -14.291 4.48321
ltoes -4.62368
318
root -8.81652 16.3282 -28.7555 -34.6254 61.2092 -47.0401
lowerback 20.2069 -0.0646389 -6.0124
upperback 0.676073 -0.973509 3.90764
thorax -10.4552 -0.00985355 8.10645
lowerneck 4.5663 -14.4995 -15.541
upperneck -0.472206 -20.7017 23.0395
head 3.26842 -10.5515 8.58992
rclavicle -1.74931e-014 -3.18055e-014
rhumerus -3.09027 6.72541 -31.8942
rradius 116.804
rwrist -35.0058
rhand -21.882 -40.3336
rfingers 7.12502
rthumb 4.52269 -70.2653
lclavicle -1.74931e-014 -3.18055e-014
lhumerus -23.8167 -27.1553 60.7143
lradius 106.349
lwrist 6.49324
lhand -12.0849 -2.70856
lfingers 7.12502
lthumb 13.9752 26.8017
rfemur -49.3903 -13.4131 36.1799
rtibia 80.0962
rfoot 5.03208 21.3408
rtoes -1.65612
lfemur -53.2785 18.4203 -19.206
ltibia 80.5487
lfoot -13.2371 4.89589
ltoes 2.28746
